<svg aria-hidden="true" fill="currentColor" width="23" height="20" viewBox="0 0.5 22.28 20.03">
  <path d="M0 1.4375C0 0.929688 0.390625 0.5 0.9375 0.5H2.69531C3.55469 0.5 4.33594 1.00781 4.6875 1.75H20.7422C21.7578 1.75 22.5 2.72656 22.2266 3.74219L20.625 9.67969C20.3125 10.9297 19.1797 11.75 17.9297 11.75H6.64062L6.875 12.8828C6.95312 13.3125 7.34375 13.625 7.77344 13.625H19.0625C19.5703 13.625 20 14.0547 20 14.5625C20 15.1094 19.5703 15.5 19.0625 15.5H7.77344C6.44531 15.5 5.27344 14.5625 5.03906 13.2344L3.00781 2.64844C2.96875 2.49219 2.85156 2.375 2.69531 2.375H0.9375C0.390625 2.375 0 1.98438 0 1.4375ZM5 18.625C5 17.9609 5.35156 17.375 5.9375 17.0234C6.48438 16.6719 7.22656 16.6719 7.8125 17.0234C8.35938 17.375 8.75 17.9609 8.75 18.625C8.75 19.3281 8.35938 19.9141 7.8125 20.2656C7.22656 20.6172 6.48438 20.6172 5.9375 20.2656C5.35156 19.9141 5 19.3281 5 18.625ZM18.125 16.75C18.7891 16.75 19.375 17.1406 19.7266 17.6875C20.0781 18.2734 20.0781 19.0156 19.7266 19.5625C19.375 20.1484 18.7891 20.5 18.125 20.5C17.4219 20.5 16.8359 20.1484 16.4844 19.5625C16.1328 19.0156 16.1328 18.2734 16.4844 17.6875C16.8359 17.1406 17.4219 16.75 18.125 16.75Z"></path>
</svg>
